<?xml version="1.0" encoding="UTF-8" standalone="no"?>
<!-- Created with Inkscape (http://www.inkscape.org/) -->

<svg
   width="800"
   height="800"
   viewBox="0 0 211.66667 211.66666"
   version="1.1"
   id="svg1"
   xml:space="preserve"
   xmlns="http://www.w3.org/2000/svg"
   xmlns:svg="http://www.w3.org/2000/svg"><defs
     id="defs1" /><g
     id="layer1"><path
       id="path1-7"
       style="mix-blend-mode:normal;fill:#000000;stroke-width:0.838576"
       d="M 89.180086,1.6340088 0.22685954,212.43871 211.43981,212.016 137.10894,40.327254 115.1754,66.545809 Z M 105.83333,97.524797 c 9.49922,0 13.44199,0.753005 20.64267,3.941363 4.89546,2.16765 11.11789,6.22654 13.82758,9.0196 2.7097,2.79306 6.55168,7.84442 8.53746,11.22567 2.91892,4.97017 3.61415,8.51865 3.62976,18.52445 0.0172,11.0151 -0.50567,13.23425 -4.7532,20.17448 -2.62486,4.28887 -7.30277,9.68559 -10.39523,11.99255 -3.09246,2.30696 -7.96178,5.19875 -10.82053,6.42648 -2.85876,1.22772 -8.31637,2.73466 -12.12846,3.34864 -3.8121,0.61399 -10.60442,0.68704 -15.093652,0.16226 -4.48926,-0.52479 -10.671193,-2.0317 -13.737663,-3.34863 -3.06647,-1.31693 -8.105306,-4.28179 -11.197766,-6.58875 -3.09245,-2.30696 -7.770381,-7.70368 -10.395231,-11.99255 -4.24753,-6.94023 -4.770378,-9.15938 -4.753198,-20.17448 0.0156,-10.0058 0.710833,-13.55428 3.629753,-18.52445 1.98577,-3.38125 5.827763,-8.43261 8.537463,-11.22567 2.70969,-2.79306 8.93213,-6.85195 13.82758,-9.0196 7.20069,-3.188358 11.143472,-3.941363 20.642664,-3.941363 z m 0,4.248323 c -6.339152,0 -12.187853,1.04041 -17.036683,3.02979 -4.06101,1.66616 -9.898931,5.30538 -12.972851,8.08736 -3.07393,2.78197 -6.950705,7.61551 -8.615495,10.74146 -1.6648,3.12596 -3.328849,9.72485 -3.697449,14.6637 -0.54401,7.2892 0.0702,10.44275 3.262333,16.75299 2.16282,4.27554 6.302135,9.91861 9.198405,12.5398 2.89628,2.6212 7.337732,5.73502 9.869682,6.91999 2.53195,1.18496 7.341733,2.74551 10.688753,3.46749 3.347015,0.72198 9.343375,0.97087 13.325285,0.55345 3.98191,-0.41742 10.18649,-1.90735 13.78779,-3.31142 3.6013,-1.40406 9.15406,-4.98166 12.3393,-7.9499 3.18524,-2.96823 7.1167,-7.80779 8.73642,-10.75439 2.06606,-3.75859 2.94452,-8.61626 2.94452,-16.27756 0,-7.87437 -0.86876,-12.5059 -3.11557,-16.60415 -1.71375,-3.12595 -5.63098,-7.95949 -8.7049,-10.74146 -3.07393,-2.78198 -8.91185,-6.4212 -12.97285,-8.08736 -4.84883,-1.98938 -10.69752,-3.02979 -17.03669,-3.02979 z m -6.486939,6.42958 c 1.666269,0 2.464969,1.41542 2.464969,4.36821 0,3.68867 0.62552,4.36821 4.02197,4.36821 3.39647,0 4.02198,-0.67954 4.02198,-4.36821 0,-2.95279 0.7987,-4.36821 2.46497,-4.36821 1.35572,0 4.8875,0.91601 7.8481,2.03553 2.9606,1.11953 5.90406,2.79907 6.5412,3.73207 0.63714,0.933 -0.0984,2.95297 -1.63453,4.48914 -2.3115,2.31157 -2.43551,3.18257 -0.72037,5.05292 1.85409,2.02185 2.43881,1.94804 5.55419,-0.70073 1.91518,-1.62833 3.88967,-2.96055 4.38733,-2.96055 0.49765,0 2.44196,3.23374 4.32066,7.18613 1.8787,3.95239 3.41581,7.88383 3.41581,8.73641 0,0.85257 -2.17196,1.5503 -4.82657,1.5503 -3.75399,0 -4.82658,0.64699 -4.82658,2.91196 0,2.28724 1.07254,2.91197 4.99866,2.91197 3.89716,0 4.78333,0.50758 4.02197,2.30322 -0.5371,1.26674 -0.97905,3.06887 -0.98236,4.00441 -0.003,0.93554 -1.49359,3.90878 -3.31143,6.60735 -3.30519,4.90648 -3.30517,4.90638 -6.99234,1.77146 -3.29277,-2.7996 -3.90863,-2.89303 -5.75934,-0.87488 -1.71514,1.87034 -1.59113,2.74134 0.72037,5.05292 1.5361,1.53617 2.27167,3.55613 1.63453,4.48913 -0.63714,0.933 -3.5806,2.61256 -6.5412,3.73208 -2.9606,1.11953 -6.49238,2.03553 -7.8481,2.03553 -1.66627,0 -2.46497,-1.41541 -2.46497,-4.36821 0,-3.68866 -0.62551,-4.36821 -4.02198,-4.36821 -3.39645,0 -4.02197,0.67955 -4.02197,4.36821 0,3.21116 -0.74611,4.35275 -2.815852,4.31085 -1.54852,-0.0314 -5.081094,-0.94937 -7.850684,-2.04018 -2.76961,-1.09081 -5.555496,-2.74434 -6.190836,-3.67472 -0.63535,-0.93037 0.101516,-2.94831 1.637626,-4.48448 2.31149,-2.31158 2.435509,-3.18258 0.720369,-5.05292 -1.8507,-2.01815 -2.466568,-1.92472 -5.759338,0.87488 -3.68717,3.13492 -3.687158,3.13502 -6.992338,-1.77146 -1.81785,-2.69857 -3.308116,-5.67181 -3.311426,-6.60735 -0.003,-0.93554 -0.445259,-2.73767 -0.982369,-4.00441 -0.76136,-1.79564 0.124807,-2.30322 4.021977,-2.30322 3.92612,0 4.998661,-0.62473 4.998661,-2.91197 0,-2.26906 -1.072418,-2.91196 -4.857068,-2.91196 -4.48338,0 -4.775371,-0.30845 -3.796151,-4.00441 0.58347,-2.20229 2.136853,-5.96961 3.452503,-8.3721 1.31566,-2.40248 2.664877,-4.64373 2.998267,-4.98057 0.33339,-0.33684 2.304731,0.83127 4.380611,2.59622 3.36817,2.86371 3.997301,2.966 5.846671,0.9493 1.71514,-1.87035 1.591121,-2.74135 -0.720369,-5.05292 -1.53611,-1.53617 -2.271666,-3.55614 -1.634526,-4.48914 0.63714,-0.933 3.580603,-2.61254 6.541203,-3.73207 2.9606,-1.11952 6.49238,-2.03553 7.8481,-2.03553 z m -2.764173,4.39043 c -1.10608,0.0122 -3.06782,0.62769 -4.35994,1.36736 -2.00911,1.15012 -1.911346,1.78291 0.676444,4.37079 2.97996,2.98008 2.9562,3.09202 -1.57148,7.36906 -2.52867,2.38868 -5.459381,4.34289 -6.512781,4.34289 -1.05341,0 -2.87115,-1.04156 -4.03903,-2.31511 -1.93067,-2.10537 -2.313394,-2.08038 -4.218864,0.27802 -1.15264,1.42661 -2.095996,3.08066 -2.095996,3.67523 0,0.59457 1.991146,1.28811 4.424536,1.54151 4.09568,0.42651 4.424537,0.9475 4.424537,7.013 0,6.06549 -0.328857,6.58651 -4.424537,7.01301 -2.43339,0.2534 -4.424536,0.94693 -4.424536,1.54151 0,0.59457 0.943356,2.24861 2.095996,3.67523 1.90547,2.3584 2.288194,2.38338 4.218864,0.27802 1.16788,-1.27356 2.98562,-2.31562 4.03903,-2.31562 1.0534,0 3.984111,1.95471 6.512781,4.3434 4.52768,4.27703 4.55144,4.38898 1.57148,7.36906 -2.58779,2.58788 -2.685554,3.22067 -0.676444,4.37079 1.29212,0.73967 3.25386,1.35509 4.35994,1.36736 1.10609,0.0123 2.011247,-1.61581 2.011247,-3.61787 0,-3.34353 0.589963,-3.64008 7.239865,-3.64008 6.64992,0 7.23987,0.29655 7.23987,3.64008 0,2.00206 0.90516,3.63013 2.01125,3.61787 1.10608,-0.0122 3.06782,-0.62769 4.35994,-1.36736 2.00911,-1.15012 1.91133,-1.78291 -0.67645,-4.37079 -2.97997,-2.98008 -2.9562,-3.09203 1.57148,-7.36906 2.52867,-2.38869 5.45938,-4.3434 6.51279,-4.3434 1.0534,0 2.87114,1.04206 4.03903,2.31562 1.93066,2.10536 2.31339,2.08038 4.21886,-0.27802 1.15265,-1.42662 2.096,-3.08066 2.096,-3.67523 0,-0.59458 -1.99115,-1.28811 -4.42454,-1.54151 -4.05169,-0.42192 -4.46537,-1.04363 -4.91443,-7.37732 -0.48484,-6.83843 -0.4354,-6.91586 4.42402,-6.91586 2.70309,0 4.91495,-0.52995 4.91495,-1.17771 0,-0.64777 -0.94335,-2.34525 -2.096,-3.77186 -1.90547,-2.3584 -2.2882,-2.38339 -4.21886,-0.27802 -1.16789,1.27355 -2.98563,2.31511 -4.03903,2.31511 -1.05341,0 -3.98412,-1.95421 -6.51279,-4.34289 -4.52768,-4.27704 -4.55145,-4.38898 -1.57148,-7.36906 2.58778,-2.58788 2.68556,-3.22067 0.67645,-4.37079 -1.29212,-0.73967 -3.25386,-1.35509 -4.35994,-1.36736 -1.10609,-0.0122 -2.01125,1.61579 -2.01125,3.61786 0,3.34352 -0.58995,3.64009 -7.23987,3.64009 -6.649902,0 -7.239865,-0.29657 -7.239865,-3.64009 0,-2.00207 -0.905157,-3.63012 -2.011247,-3.61786 z" /></g></svg>
